<svg xmlns="http://www.w3.org/2000/svg" width="340.67" height="451.67"><path opacity=".15" d="M283.33 28.54V0H58.67v28.54h-28V88h280.66V28.54h-28z"/><path opacity=".58" d="M255.33 84.78V0H86.67v85.03H0v65.49h340.67V84.78h-85.34z"/><path opacity=".89" d="M311.33 56.33h-28V28.29h-56V0H114.67v28.29h-56v28.04h-28v44h280.66v-44z"/><path d="M311.33 141V84.67h-28V56.33h-28v-28h-56V0h-56.66v28.33h-56v28h-28v28.34h-28V141H0v282h142.67v28.67h56.66V423h141.34V141h-29.34z"/><path opacity=".15" d="M58.67 423h28v28.67h-28zM255.33 423h28v28.67h-28z"/><path opacity=".58" d="M114.67 423h112.67v28.67H114.67zM283.33 416h28v35.33h-28zM30.67 413h28v38.67h-28z"/><path opacity=".89" d="M0 113h340.67v62H0z"/><path opacity=".92" d="M0 422h30.67v29H0zM311.33 422h29.33v29h-29.33z"/><g fill="#fff"><path d="M58.67 113h28v28h-28zM58.67 169h28v28h-28zM114.67 113h28v28h-28zM114.67 169h28v28h-28zM86.67 141h28v28h-28zM199.33 113h28v28h-28zM199.33 169h28v28h-28zM255.33 113h28v28h-28zM255.33 169h28v28h-28zM227.33 141h28v28h-28z"/></g></svg>