
<svg version="1.0" xmlns="http://www.w3.org/2000/svg"
  viewBox="0 0 150.000000 150.000000"
 preserveAspectRatio="xMidYMid meet">
            <circle cx="75" cy="75" r="80" stroke="black" 
                    stroke-width="3" fill="white" />
								 
<g transform="translate(0.000000,150.000000) scale(0.100000,-0.100000)"
fill="#000000" stroke="none">
<path d="M953 1139 c-18 -5 -33 -11 -33 -12 0 -1 34 -2 76 -2 67 0 72 1 47 12
-33 14 -47 14 -90 2z"/>
<path d="M1020 1023 c-46 -17 -67 -76 -36 -102 11 -9 30 -3 87 29 41 23 67 39
59 37 -8 -2 -24 3 -35 13 -24 21 -54 30 -75 23z"/>
<path d="M290 973 c-28 -10 -88 -55 -94 -69 -3 -8 11 -1 32 15 20 16 54 34 75
41 20 6 37 13 37 16 0 5 -31 4 -50 -3z"/>
<path d="M1169 832 c-30 -16 -84 -46 -121 -66 -86 -47 -297 -116 -463 -152
-106 -23 -156 -28 -272 -28 -78 -1 -145 -4 -149 -8 -4 -5 11 -8 33 -8 55 0 81
-23 137 -122 198 -353 460 -466 647 -279 93 94 145 240 169 476 7 66 19 130
26 142 22 35 71 56 118 50 39 -5 40 -5 16 8 -39 22 -82 18 -141 -13z m-27 -94
c-2 -29 -7 -56 -11 -59 -6 -7 -783 -191 -786 -186 -1 1 -11 16 -23 34 -25 36
-28 47 -9 40 21 -8 183 11 292 34 131 27 349 99 450 148 44 22 83 40 86 40 3
1 4 -23 1 -51z m-36 -147 c1 -39 -10 -105 -25 -143 l-10 -28 -43 22 c-51 27
-138 29 -186 4 -17 -9 -41 -16 -54 -16 -61 0 -138 -91 -158 -186 -6 -29 -9
-58 -5 -64 3 -5 1 -10 -5 -10 -34 0 -240 239 -240 279 0 13 -30 6 555 142 72
17 135 32 140 34 21 7 30 -3 31 -34z m-96 -176 c71 -37 42 -129 -58 -179 -51
-26 -179 -56 -239 -56 l-53 0 0 33 c1 64 55 153 111 182 l26 14 -5 -48 c-2
-30 0 -51 7 -55 7 -5 11 6 11 32 0 41 16 63 60 81 38 15 107 13 140 -4z m-60
-240 c-56 -57 -109 -78 -190 -73 -78 4 -113 23 -64 33 16 4 83 22 149 40 66
18 124 33 129 34 6 0 -5 -15 -24 -34z"/>
<path d="M689 831 c-3 -7 -48 -12 -114 -14 -118 -3 -168 -19 -180 -57 -9 -27
11 -59 41 -66 35 -9 156 2 219 20 66 19 31 19 -80 1 -123 -21 -176 -6 -160 44
9 29 62 41 178 41 79 0 99 3 104 15 3 9 3 18 0 21 -3 3 -7 0 -8 -5z"/>
<path d="M226 789 c-14 -11 -26 -26 -26 -34 0 -7 -6 -16 -12 -18 -7 -3 15 -6
50 -6 34 -1 65 -2 70 -3 17 -6 12 42 -7 61 -26 26 -42 26 -75 0z"/>
</g>
</svg>
