<svg width="94" height="100" viewBox="0 0 94 100" fill="none" xmlns="http://www.w3.org/2000/svg">
<path fill-rule="evenodd" clip-rule="evenodd" d="M78.2483 70.9859L69.9271 65.5114L62.9928 77.0808L54.9271 74.745L47.8103 85.5844L48.1753 88.9786L86.7884 81.8618L84.5622 57.7742L78.2483 70.9859ZM42.2264 60.5844L48.4308 59.745C49.4162 60.183 50.1096 60.3654 51.3505 60.6574C52.5359 61.048 53.7888 61.1912 55.0317 61.0782C56.2747 60.9652 57.4812 60.5984 58.5768 60.0005C59.3067 59.6355 60.876 58.1757 61.4965 57.4092L86.8979 52.7742L89.4527 84.1611L46.022 91.9713L42.2264 60.5844ZM89.3797 49.2706L86.8614 49.7815L82.0439 0.000488281L0.0366211 9.48954L10.1461 91.6063L19.7082 90.1465C18.9417 89.0516 17.7374 87.7377 15.6936 86.0589C12.8833 83.6866 13.8687 79.7085 15.5476 77.1903C17.7374 72.9202 29.1242 67.5187 28.4673 60.6939C28.2483 58.2487 27.8468 55.0005 25.5476 52.8107C25.4746 53.7231 25.6206 54.6355 25.6206 54.6355C25.6206 54.6355 24.6717 53.3946 24.1972 51.7523C23.7593 51.1319 23.3943 50.9494 22.8833 50.11C22.5184 51.0589 22.5914 52.1903 22.5914 52.1903C22.5914 52.1903 21.7884 50.3655 21.679 48.8326C21.3546 49.4569 21.1562 50.139 21.095 50.8399C21.095 50.8399 20.1096 47.9202 20.3651 46.4238C19.8906 45.0735 18.5403 42.4092 18.9052 36.3144C21.4235 38.0662 26.9344 37.6647 29.0512 34.4895C29.7811 33.4311 30.2556 30.5844 28.6863 24.9275C27.7009 21.3144 25.2191 15.9494 24.2702 13.9056L24.1607 13.9786C24.856 16.2144 25.5009 18.4656 26.095 20.7304C27.3724 25.8399 27.7374 27.5917 27.1169 29.9275C26.6425 31.9713 25.4746 33.2852 22.5184 34.7815C19.5622 36.2414 15.6206 32.6282 15.3651 32.4457C12.8274 30.4375 10.9674 27.6985 10.0366 24.599C9.78115 22.5917 11.168 21.4238 11.8614 19.7815C11.1399 20.0051 10.4329 20.2732 9.74465 20.5844C9.74465 20.5844 11.095 19.1976 12.7374 18.0297C13.4673 17.5552 13.8322 17.2633 14.5622 16.6428H12.6644C12.6644 16.6428 14.4162 15.7304 16.241 15.037C14.8906 14.964 13.6133 15.037 13.6133 15.037C13.6133 15.037 17.5184 13.2852 20.6206 12.0078C22.7374 11.1319 24.8176 11.3873 25.9855 13.0662C27.4819 15.256 29.0877 16.4603 32.5184 17.1903C34.5987 16.2779 35.2191 15.8034 37.8468 15.0735C40.1461 12.5187 41.9709 12.2268 41.9709 12.2268C41.9709 12.2268 41.0585 13.0297 40.8395 14.3436C42.1534 13.3217 43.5768 12.4457 43.5768 12.4457C43.5768 12.4457 43.0293 13.1392 42.4819 14.2341L42.6279 14.4165C43.6986 13.7985 44.8079 13.2499 45.949 12.7742L44.8541 14.2341C45.9855 14.2341 48.3213 14.3071 49.2337 14.4165C54.5987 14.526 55.6936 8.68662 57.7373 7.95669C60.2921 7.04428 61.46 6.49684 65.8395 10.8034C69.5987 14.453 72.5549 21.0954 71.095 22.5917C69.8541 23.7961 67.4454 22.1173 64.7811 18.7596C63.2537 16.8799 62.2244 14.6457 61.7884 12.2633C61.387 10.037 59.7446 8.72311 59.7446 8.72311C59.7446 8.72311 60.6936 10.8399 60.6936 12.7377C60.6936 13.7596 60.803 17.5552 62.4454 19.7085C62.2994 20.037 62.2264 21.2779 62.0439 21.5333C60.1461 19.1976 56.022 17.5187 55.3651 17.0808C57.6279 18.9056 62.8103 23.1757 64.8541 27.2633C66.7154 31.1319 65.5841 34.672 66.5695 35.5844C66.8249 35.8399 70.6206 40.5479 71.3505 42.9567C72.6279 47.0808 71.4235 51.4238 69.7447 54.1246L65.1096 54.8545C64.4162 54.672 63.9782 54.5625 63.3578 54.1976C63.7851 53.447 64.1278 52.6514 64.3797 51.8253L64.1242 51.3508C62.5186 53.4552 60.5084 55.2172 58.2118 56.5333C57.0423 57.1472 55.762 57.5215 54.4459 57.6343C53.1299 57.7471 51.8045 57.5962 50.5476 57.1903C46.1574 55.6871 42.0405 53.4808 38.3578 50.6574C38.3578 50.6574 38.3578 51.4603 38.5768 51.6428C39.9636 53.2487 43.2118 56.1319 46.3505 58.1392L39.6717 58.8691L42.8468 83.4676C41.4235 83.6866 41.2045 83.7961 39.6717 84.0151C38.7013 80.0544 36.2953 76.595 32.9198 74.3071C30.1277 72.7303 26.8447 72.2612 23.7228 72.9932L23.5403 73.2122C25.803 72.9932 28.5038 73.3216 31.2775 75.0735C34.0147 76.7888 36.2045 81.2779 37.0074 83.9056C38.0658 87.3362 38.7593 90.9859 35.9855 94.8545C34.0147 97.6282 28.2118 99.1611 23.5768 95.8764C24.7811 97.8837 26.4965 99.526 28.7593 99.818C32.1169 100.292 35.3286 99.7085 37.5184 97.4457C39.4162 95.5114 40.4016 91.4603 40.1461 87.2268L43.1023 86.7888L44.1972 94.4165L93.4673 88.4676L89.4162 49.3071L89.3797 49.2706ZM59.4527 28.5406C59.2702 28.8691 59.0877 29.0516 59.3797 30.0735V30.1465L59.4527 30.2925L59.5987 30.5844C60.1826 31.7888 60.8395 32.9202 61.8979 33.5041C62.1899 33.4311 62.4454 33.3946 62.7738 33.3946C63.7592 33.3582 64.4162 33.5041 64.8176 33.7231V32.7742C64.7447 31.2779 65.1096 28.6866 62.2264 27.3363C61.1315 26.8253 59.5622 26.9713 59.0512 27.6282L59.3067 27.7012C60.0731 27.9567 59.5622 28.2122 59.4162 28.5406H59.4527ZM67.5914 42.6647C64.5109 42.3422 61.4016 42.8857 58.6133 44.2341C57.5914 45.037 58.0658 46.4238 58.8322 46.9713C60.949 48.5771 62.8468 49.6355 64.7811 49.38C65.9855 49.2341 67.0439 47.2998 67.8103 45.5844C68.3213 44.38 68.3213 43.1027 67.5549 42.6647H67.5914ZM46.4235 30.4384C47.1169 29.7815 43.0658 28.9421 39.9636 31.0589C37.6644 32.6282 37.5914 36.0224 39.7811 37.9202L40.3651 38.3581C42.1945 37.4779 44.154 36.8987 46.168 36.6428C46.6425 36.1319 47.1899 35.183 47.0439 33.5406C46.8614 31.2779 45.1461 31.6428 46.4235 30.4384Z" fill="white"/>
</svg>
