<svg width="89" height="100" viewBox="0 0 89 100" fill="none" xmlns="http://www.w3.org/2000/svg">
<path d="M85.3462 76.9454L46.6989 99.2752C45.8841 99.7497 44.958 99.9996 44.0151 99.9996C43.0721 99.9996 42.146 99.7497 41.3312 99.2752L2.68389 76.9454C1.01991 75.9792 0 74.2083 0 72.3294V27.6699C0 25.7377 1.01991 24.0201 2.68389 23.0538L41.3312 0.724087C42.146 0.249609 43.0721 -0.000366211 44.0151 -0.000366211C44.958 -0.000366211 45.8841 0.249609 46.6989 0.724087L85.3462 23.0538C87.0106 24.0201 88.0301 25.7913 88.0301 27.6699V72.3294C87.9765 74.2079 86.9566 75.9792 85.3462 76.9454Z" fill="#8D6748"/>
<path d="M43.9615 6.78992C43.1565 6.78992 42.3511 7.00449 41.6534 7.43398L8.26629 26.704C6.81689 27.5093 5.95825 29.0657 5.95825 30.6757V69.216C5.95825 70.88 6.81689 72.383 8.26629 73.1884L41.6534 92.4584C42.3511 92.8878 43.1561 93.1024 43.9615 93.1024C44.7661 93.1024 45.5718 92.8878 46.2695 92.4584L79.6567 73.188C81.1061 72.383 81.9647 70.8263 81.9647 69.2163V30.6757C81.9647 29.012 81.1061 27.5093 79.6567 26.704L46.2695 7.43364C45.5715 7.00449 44.7665 6.78992 43.9615 6.78992ZM43.9615 8.40025C44.4979 8.40025 44.9814 8.56118 45.4642 8.82974L78.8513 28.0997C79.7639 28.6362 80.354 29.6564 80.354 30.73V69.27C80.354 70.3435 79.7639 71.3631 78.8513 71.8999L45.4645 91.1699C44.9814 91.4381 44.4982 91.5994 43.9615 91.5994C43.4304 91.5972 42.9103 91.4484 42.4584 91.1695L9.07129 71.9002C8.15866 71.3634 7.56824 70.3439 7.56824 69.2703V30.73C7.56824 29.6564 8.15866 28.6365 9.07094 28.0994L42.4581 8.82974C42.9412 8.56118 43.478 8.39991 43.9608 8.39991L43.9615 8.40025ZM40.8749 42.002H45.3837C45.545 42.002 45.6523 41.948 45.7596 41.8407C48.4434 38.8349 48.712 32.5545 48.712 30.676C48.712 30.4078 48.4971 30.1392 48.1752 30.1392H38.0837C37.8155 30.1392 37.547 30.3538 37.547 30.676C37.547 32.5009 37.8155 38.7813 40.4994 41.8407C40.6067 41.948 40.714 42.002 40.8749 42.002ZM39.6404 31.8032H46.7258C46.994 31.8032 47.2626 32.0178 47.2626 32.34C47.2626 33.843 46.994 38.0833 45.1691 40.284C45.0082 40.3916 44.9009 40.4453 44.7396 40.4453H41.573C41.4117 40.4453 41.3044 40.3916 41.1971 40.284C39.3719 38.1372 39.1573 33.843 39.1037 32.34C39.1037 32.0718 39.3182 31.8032 39.6404 31.8032ZM44.1492 29.066C44.1492 29.066 46.0818 27.9385 44.9006 25.899C44.2029 24.8251 43.881 23.9128 44.1492 23.537C43.4515 24.3959 42.2707 25.3082 43.5588 27.2408C43.9886 27.7239 44.2029 28.7435 44.1492 29.0657V29.066ZM42.0021 29.2266C42.0021 29.2266 43.2902 28.4752 42.4852 27.0795C42.0021 26.3818 41.7875 25.7377 42.0021 25.5228C41.519 26.1132 40.7676 26.7036 41.6263 28.0458C41.8948 28.314 42.0021 29.012 42.0021 29.2266ZM41.8412 39.8012H44.5251C44.6324 39.8012 44.7396 39.7476 44.8469 39.6403C45.7596 38.5667 46.189 36.9028 46.4036 35.4533C46.4036 35.4533 46.35 35.9365 45.0619 36.4196C43.2909 37.0637 40.1772 36.6342 40.1772 36.6342C40.4454 37.7614 40.8753 38.8349 41.519 39.6403C41.5726 39.7476 41.7339 39.8012 41.8412 39.8012ZM21.6586 54.8843V44.1491H19.6727L16.3984 49.1946L13.1241 44.1491H11.1379V54.9379H13.0165V47.2621L16.3444 52.254H16.3981L19.78 47.2085V54.8843H21.6586ZM33.6826 44.3636C32.9845 44.0954 32.2332 43.9342 31.4282 43.9342C30.6228 43.9342 29.8715 44.0414 29.1734 44.364C28.4754 44.6322 27.8853 45.0614 27.4022 45.5445C26.8948 46.0506 26.4934 46.6528 26.2213 47.3158C25.9531 48.0138 25.7915 48.7112 25.7915 49.4629V49.5165C25.7915 50.2679 25.9531 51.0196 26.2213 51.6636C26.4896 52.3617 26.8654 52.9517 27.3485 53.4349C27.8317 53.918 28.4221 54.3475 29.1195 54.6157C29.8175 54.8843 30.5692 55.0456 31.3742 55.0456C32.1795 55.0456 32.9309 54.9379 33.6289 54.6157C34.3266 54.3475 34.9171 53.918 35.3999 53.4349C35.9073 52.9289 36.3088 52.3269 36.581 51.664C36.8493 50.9659 37.0105 50.2679 37.0105 49.5165V49.4629C37.0105 48.7112 36.8489 47.9602 36.5807 47.3158C36.3125 46.618 35.937 46.0276 35.4538 45.5448C34.9707 45.0614 34.3803 44.6319 33.6826 44.3636ZM34.9707 49.5701C34.9707 50.0533 34.8634 50.5364 34.7021 51.0196C34.4876 51.4487 34.273 51.8782 33.9508 52.2004C33.6211 52.5279 33.2404 52.7998 32.8236 53.0054C32.3938 53.2203 31.911 53.3276 31.3742 53.3276C30.8914 53.3276 30.3546 53.2203 29.9251 53.0054C29.5084 52.7999 29.1277 52.5282 28.7979 52.2007C28.4757 51.8245 28.2075 51.4487 28.0462 50.9663C27.8853 50.4828 27.778 50 27.778 49.4629V49.4092C27.778 48.9261 27.8853 48.443 28.0462 47.9598C28.2612 47.5303 28.4757 47.1012 28.7979 46.779C29.1276 46.4513 29.5083 46.1793 29.9251 45.9736C30.3546 45.7591 30.8374 45.6518 31.3742 45.6518C31.9106 45.6518 32.3941 45.7591 32.8236 45.9736C33.2404 46.1793 33.6211 46.4513 33.9508 46.779C34.273 47.1548 34.5412 47.5303 34.7021 48.0135C34.8634 48.4966 34.9704 48.9797 34.9704 49.5165V49.5701H34.9707ZM42.9147 47.9598C43.1293 47.5303 43.3442 47.1008 43.6661 46.779C43.9959 46.4515 44.3766 46.1795 44.7933 45.9736C45.2228 45.7591 45.6523 45.6518 46.189 45.6518C46.8331 45.6518 47.3699 45.7591 47.853 46.0273C48.3362 46.2958 48.7656 46.618 49.1948 46.9935L50.4296 45.5981C50.1611 45.3299 49.8928 45.115 49.6243 44.9001C49.3561 44.6855 49.0339 44.5246 48.712 44.3636C48.3362 44.256 48.014 44.1487 47.5845 44.0414C47.1553 43.9878 46.7258 43.9342 46.2427 43.9342C45.3837 43.9342 44.686 44.0951 43.9883 44.3633C43.2906 44.6319 42.7002 45.0614 42.217 45.5445C41.7432 46.0665 41.362 46.6655 41.0898 47.3158C40.8085 47.9968 40.6626 48.726 40.6603 49.4629V49.5165C40.6603 50.2679 40.8213 50.9656 41.0898 51.6636C41.358 52.3617 41.7339 52.9517 42.217 53.4349C42.7002 53.918 43.2906 54.3475 43.9346 54.6157C44.614 54.9023 45.3444 55.0486 46.0818 55.0456C46.5649 55.0456 47.0477 55.0456 47.5308 54.9379C47.9067 54.8843 48.3362 54.723 48.658 54.5621C48.9802 54.4011 49.3024 54.2399 49.6243 53.9717C49.9465 53.7034 50.2147 53.4885 50.4833 53.1663L49.2488 51.9318C48.7656 52.3617 48.2825 52.6835 47.853 52.9517C47.4235 53.2203 46.8331 53.3276 46.189 53.3276C45.7059 53.3276 45.2228 53.1663 44.7933 53.0054C44.3641 52.8445 43.9883 52.5223 43.6661 52.2007C43.3442 51.8245 43.0757 51.4487 42.9147 50.9656C42.7538 50.4828 42.6462 49.9996 42.6462 49.4629V49.4092C42.6462 48.9261 42.7538 48.443 42.9147 47.9598ZM54.2407 44.1491V54.8843H56.1193V50.3755H61.2725V54.8843H63.151V44.1487H61.2725V48.6042H56.1193V44.1487H54.2407V44.1491ZM74.8525 52.308L75.926 54.8846H77.9119L73.1885 44.0954H71.4705L66.7472 54.8843H68.6797L69.8066 52.3077H74.8525V52.308ZM72.3295 46.3498L74.1544 50.6441H70.5046L72.3295 46.3498ZM9.79616 58.856H78.2341V58.2655H9.79616V58.856ZM49.1415 38.0829C49.1415 38.2975 49.0875 38.4588 49.0875 38.6737H78.2341V38.0829H49.1412H49.1415ZM37.1715 38.0829H9.79616V38.6737H37.2251C37.2251 38.4591 37.1711 38.2978 37.1711 38.0829H37.1715Z" fill="white"/>
</svg>
