<?xml version="1.0" encoding="utf-8"?>
<!-- Generator: Adobe Illustrator 19.2.1, SVG Export Plug-In . SVG Version: 6.00 Build 0)  -->
<svg version="1.1" id="Capa_1" xmlns="http://www.w3.org/2000/svg" xmlns:xlink="http://www.w3.org/1999/xlink" x="0px" y="0px"
	 viewBox="0 0 210.7 74.7" style="enable-background:new 0 0 210.7 74.7;" xml:space="preserve">
<style type="text/css">
	.st0{enable-background:new    ;}
</style>
<path d="M202.3,43.5c-2,0.7-4,1.4-6,2.1c-1,0.4-2,0.7-3,1.1c-1,0.4-1.9,0.8-2.9,1.2l-5.8,2.4l-17.1,7.1V25.3
	c0.9,0.4,1.7,0.7,2.6,1.1c1,0.4,2,0.7,3,1.1l6,2.2c2,0.7,4,1.4,6,2.1c-1.9-0.9-3.7-1.9-5.6-2.8l-5.6-2.7c-0.9-0.5-1.9-0.9-2.8-1.4
	c-1-0.4-2-0.8-2.9-1.2l-5.8-2.5l0,0L162,21l-6.1,1.4l0,0l-11.7,2.5c-0.7,0.2-1.5,0.3-2.2,0.4c-0.4,0.1-0.7,0.2-1.1,0.3
	c-0.4,0.1-0.7,0.2-1.1,0.3l-4.3,1.1l-4.3,1.2l-4.3,1.2l0,0l0,0l4.5-0.7l4.5-0.7l4.5-0.7c0.7-0.1,1.5-0.2,2.2-0.4
	c0.7-0.2,1.5-0.3,2.2-0.5L156,24v34.7l-11.4-2.3c-0.7-0.1-1.5-0.3-2.2-0.5s-1.5-0.3-2.2-0.4l-4.5-0.7l-4.5-0.7l-4.5-0.6l4.4,1.2
	l4.4,1.1l4.4,1.1c0.7,0.2,1.5,0.4,2.2,0.5s1.5,0.3,2.2,0.4l14.4,2.9l3.5,0.7l0.4-0.2l0,0l23.3-9.7l5.8-2.4c1-0.4,1.9-0.8,2.9-1.2
	s1.9-0.9,2.8-1.3c1.9-0.9,3.8-1.8,5.6-2.7c1.9-0.9,3.7-1.8,5.6-2.8C206.3,42.1,204.3,42.8,202.3,43.5z"/>
<path d="M54.4,52.6c0-1.4,0-2.8,0-4.2V40V6.2V1.8l-2.7,3.5L25.6,39l-6.5,8.4l-3.3,4.2c-1.1,1.4-2.2,2.8-3.3,4.2s-2,2.9-3,4.4
	l-2.9,4.5c-2,3-3.9,5.9-5.8,9c2.4-2.6,4.8-5.3,7.2-7.9l3.6-4c1.2-1.3,2.4-2.6,3.5-4.1c1.1-1.4,2.2-2.8,3.2-4.2l3.2-4.2l6.5-8.4
	l23.3-30.3v29.3v8.4c0,1.4,0,2.8,0,4.2c-0.1,1.4,0,2.8,0.1,4.2c0.4,5.6,0.8,11.2,1.4,16.9c0.6-5.6,1-11.2,1.4-16.9
	C54.3,55.4,54.4,54,54.4,52.6z"/>
<path d="M76.6,53.8c-1.2,0.5-2.4,0.9-3.7,1.2c-1.3,0.3-2.8,0.4-4.4,0.4c-1.7,0-3.1-0.2-4.1-0.6c-1.1-0.4-1.9-1-2.6-1.9
	s-1.1-1.8-1.3-3c-0.3-1.2-0.4-2.5-0.4-4V29.1h16.1v-2.4H60.1v-8.8h-2.3l-0.4,8.8L48.1,27c-1.4,0-2.8,0-4.2,0c-5.6,0-11.3,0-15.5,0
	c-0.5,0-1-0.1-1.5,0s-0.9,0.2-1.4,0.2c-0.9,0.1-1.6,0.3-2.2,0.4c-1.3,0.2-2,0.4-2,0.4s0.7,0.2,1.9,0.4c0.6,0.1,1.4,0.3,2.2,0.4
	c0.4,0.1,0.9,0.1,1.4,0.2s1,0,1.5,0c4.2,0,9.8,0,15.5,0c1.4,0,2.8,0,4.2,0l9.3,0.1v16.6c0,1.8,0.2,3.5,0.5,5
	c0.4,1.5,0.9,2.8,1.8,3.8c0.8,1.1,1.9,1.9,3.3,2.5c1.4,0.6,3.1,0.9,5.2,0.9c1.5,0,3-0.2,4.7-0.5s3.2-0.8,4.5-1.4L76.6,53.8z"/>
<g>
	<path d="M77.6,26.7H80l0.3,7.5h0.1c1.6-2.4,3.7-4.4,6.1-5.9s5.2-2.3,8.2-2.3c1,0,2,0.1,3.1,0.3c1,0.2,2,0.5,3,1l-0.7,2.5
		c-1.1-0.4-2-0.7-2.8-0.8c-0.8-0.2-1.8-0.3-3-0.3c-2.5,0-4.9,0.7-7.2,2.2c-2.3,1.4-4.5,3.9-6.6,7.3v19h-2.8L77.6,26.7L77.6,26.7z"/>
</g>
<path d="M182.8,41c-1.2-0.1-2.6-0.2-4.3-0.4c-0.8-0.1-1.7-0.2-2.6-0.2c-0.9-0.1-1.9,0-2.9,0c-8.1,0-19,0-29.9,0
	c-6.4,0-12.7,0-18.5,0c0-0.1,0-0.3,0-0.4c0-2.2-0.3-4.2-0.9-5.9s-1.5-3.2-2.7-4.4c-1.2-1.2-2.6-2.1-4.3-2.8c-1.7-0.7-3.6-1-5.6-1
	c-1.9,0-3.8,0.4-5.6,1.1c-1.8,0.7-3.4,1.8-4.8,3.2c-1.4,1.4-2.6,3-3.4,5c-0.9,2-1.3,4.2-1.3,6.7s0.4,4.7,1.3,6.7c0.8,2,2,3.6,3.4,5
	c1.5,1.4,3.2,2.4,5.1,3.1c1.9,0.7,4,1.1,6.2,1.1c2.7,0,4.9-0.4,6.7-1.1c1.8-0.7,3.4-1.6,4.8-2.4l-1.1-2.2c-1.4,1-3,1.8-4.6,2.4
	c-1.6,0.6-3.5,0.9-5.5,0.9s-3.8-0.3-5.4-1s-3-1.6-4.2-2.7c-1.2-1.2-2.1-2.6-2.7-4.2c-0.7-1.6-1-3.4-1-5.3h15.5
	c8.1,0,18.1,0.1,29,0.1s21.7,0,29.9,0c1,0,2,0.1,2.9,0s1.8-0.2,2.6-0.2c1.7-0.1,3.1-0.3,4.3-0.4c2.4-0.2,3.7-0.4,3.7-0.4
	S185.1,41.2,182.8,41z M100,35.2c0.7-1.5,1.7-2.7,2.8-3.7c1.1-1,2.4-1.8,3.8-2.3s2.8-0.8,4.4-0.8c3.3,0,5.9,1,7.9,2.9
	c2,2,2.9,4.9,2.9,8.8H98.6C98.8,38.3,99.3,36.7,100,35.2z"/>
<g class="st0">
	<path d="M66.1,58.7v13.8h-0.6v-2c-0.4,0.7-0.9,1.2-1.6,1.6s-1.4,0.6-2.2,0.6c-1.2,0-2.3-0.4-3.1-1.3c-0.9-0.9-1.3-1.9-1.3-3.1
		c0-1.2,0.4-2.2,1.3-3.1c0.9-0.9,1.9-1.3,3.1-1.3c0.8,0,1.5,0.2,2.2,0.6s1.2,0.9,1.6,1.6v-7.6H66.1z M58,68.3c0,1,0.4,1.9,1.1,2.7
		s1.6,1.1,2.7,1.1c1,0,1.9-0.4,2.7-1.1s1.1-1.6,1.1-2.7s-0.4-1.9-1.1-2.7c-0.8-0.8-1.6-1.2-2.7-1.2s-1.9,0.4-2.7,1.1
		C58.4,66.4,58,67.3,58,68.3z"/>
	<path d="M72.5,72.7h-0.2c-1.2,0-2.2-0.4-3.1-1.3c-0.9-0.9-1.3-1.9-1.3-3.1c0-1.2,0.4-2.2,1.3-3c0.9-0.9,1.9-1.3,3.2-1.3
		c1.3,0,2.4,0.5,3.3,1.5l-5.8,5.7c0.8,0.6,1.6,1,2.3,1s1.4-0.2,2-0.5c0.6-0.3,1.1-0.8,1.4-1.4v0.9C74.8,72.2,73.7,72.7,72.5,72.7z
		 M72.3,64.5c-1,0-1.8,0.4-2.6,1.1c-0.8,0.8-1.1,1.6-1.1,2.6c0,1,0.3,1.8,1,2.6l5.4-5.3C74.1,64.8,73.3,64.5,72.3,64.5z"/>
	<path d="M79.3,64.5c-0.3,0-0.6,0.1-0.8,0.3c-0.2,0.2-0.4,0.5-0.4,0.8c0,0.3,0.1,0.6,0.4,0.8c0.3,0.3,0.6,0.5,1,0.7s0.8,0.4,1.2,0.7
		c0.4,0.2,0.7,0.6,1,0.9c0.3,0.4,0.4,0.8,0.4,1.3c0,0.7-0.3,1.3-0.8,1.9c-0.5,0.5-1.2,0.8-2,0.8c-0.5,0-0.9-0.1-1.4-0.3
		c-0.4-0.2-0.7-0.5-0.9-0.9v-0.9c0.5,1,1.2,1.5,2.2,1.5c0.6,0,1.2-0.2,1.6-0.6c0.4-0.4,0.7-0.8,0.7-1.3c0-0.5-0.1-0.9-0.4-1.2
		c-0.3-0.3-0.6-0.6-1-0.8s-0.8-0.5-1.2-0.7s-0.7-0.5-1-0.8c-0.3-0.3-0.4-0.7-0.4-1.1c0-0.4,0.2-0.8,0.5-1.1s0.8-0.5,1.4-0.5
		c0.6,0,1,0.2,1.4,0.6v0.8C80.4,64.8,79.9,64.5,79.3,64.5z"/>
	<path d="M92.1,64.2v8.3h-0.6v-2.1c-0.3,0.7-0.9,1.3-1.5,1.7c-0.7,0.4-1.4,0.6-2.2,0.6c-1.2,0-2.2-0.4-3.1-1.3s-1.3-1.9-1.3-3.1
		c0-1.2,0.4-2.2,1.3-3.1c0.9-0.9,1.9-1.3,3.1-1.3c0.8,0,1.5,0.2,2.3,0.6s1.2,1,1.5,1.7v-2.1H92.1z M83.9,68.3c0,1,0.4,1.9,1.1,2.7
		c0.8,0.8,1.7,1.1,2.7,1.1c1,0,1.9-0.4,2.7-1.1s1.1-1.7,1.1-2.7c0-1-0.4-1.9-1.1-2.7c-0.7-0.8-1.6-1.1-2.7-1.1s-1.9,0.4-2.7,1.2
		C84.3,66.4,83.9,67.3,83.9,68.3z"/>
	<path d="M97.4,64.5c-0.7,0-1.2,0.2-1.7,0.7s-0.7,1.1-0.7,1.7v5.5h-0.6v-8.3h0.6v1.2c0.2-0.4,0.6-0.8,1-1c0.5-0.3,1-0.4,1.6-0.4
		c0.6,0,1.1,0.2,1.7,0.6v0.7C98.6,64.8,98,64.5,97.4,64.5z"/>
	<path d="M103.8,64.5c-0.7,0-1.2,0.2-1.7,0.7s-0.7,1.1-0.7,1.7v5.5h-0.6v-8.3h0.6v1.2c0.2-0.4,0.6-0.8,1-1c0.5-0.3,1-0.4,1.6-0.4
		c0.6,0,1.1,0.2,1.7,0.6v0.7C105,64.8,104.4,64.5,103.8,64.5z"/>
	<path d="M107.9,71.4c-0.8-0.9-1.3-1.9-1.3-3.1c0-1.2,0.4-2.2,1.3-3c0.9-0.9,1.9-1.3,3.1-1.3c1.2,0,2.2,0.4,3.1,1.3
		c0.9,0.9,1.3,1.9,1.3,3s-0.4,2.2-1.3,3.1c-0.8,0.9-1.8,1.3-3,1.3H111C109.8,72.7,108.8,72.2,107.9,71.4z M114.9,68.3
		c0-1-0.4-1.9-1.1-2.7c-0.7-0.8-1.6-1.1-2.7-1.1s-1.9,0.4-2.7,1.2c-0.8,0.8-1.1,1.7-1.1,2.7s0.4,1.9,1.1,2.7
		c0.8,0.8,1.7,1.1,2.7,1.1c1,0,1.9-0.4,2.7-1.1S114.9,69.4,114.9,68.3z"/>
	<path d="M120.3,72.1v0.5c-0.9,0-1.6-0.3-2.2-0.9c-0.6-0.6-0.9-1.3-0.9-2.2V58.7h0.6v10.9c0,0.8,0.2,1.4,0.7,1.9
		C119,71.9,119.6,72.1,120.3,72.1z"/>
	<path d="M125,72.1v0.5c-0.9,0-1.6-0.3-2.2-0.9c-0.6-0.6-0.9-1.3-0.9-2.2V58.7h0.6v10.9c0,0.8,0.2,1.4,0.7,1.9
		C123.7,71.9,124.3,72.1,125,72.1z"/>
	<path d="M134,64.2v8.3h-0.6v-2.1c-0.3,0.7-0.9,1.3-1.5,1.7c-0.7,0.4-1.4,0.6-2.2,0.6c-1.2,0-2.2-0.4-3.1-1.3s-1.3-1.9-1.3-3.1
		c0-1.2,0.4-2.2,1.3-3.1c0.9-0.9,1.9-1.3,3.1-1.3c0.8,0,1.5,0.2,2.3,0.6s1.2,1,1.5,1.7v-2.1H134z M125.8,68.3c0,1,0.4,1.9,1.1,2.7
		c0.8,0.8,1.7,1.1,2.7,1.1c1,0,1.9-0.4,2.7-1.1s1.1-1.7,1.1-2.7c0-1-0.4-1.9-1.1-2.7c-0.7-0.8-1.6-1.1-2.7-1.1s-1.9,0.4-2.7,1.2
		C126.2,66.4,125.8,67.3,125.8,68.3z"/>
	<path d="M144.5,58.7v13.8h-0.6v-2c-0.4,0.7-0.9,1.2-1.6,1.6c-0.7,0.4-1.4,0.6-2.2,0.6c-1.2,0-2.3-0.4-3.1-1.3
		c-0.9-0.9-1.3-1.9-1.3-3.1c0-1.2,0.4-2.2,1.3-3.1c0.9-0.9,1.9-1.3,3.1-1.3c0.8,0,1.5,0.2,2.2,0.6c0.7,0.4,1.2,0.9,1.6,1.6v-7.6
		H144.5z M136.3,68.3c0,1,0.4,1.9,1.1,2.7s1.6,1.1,2.7,1.1c1,0,1.9-0.4,2.7-1.1s1.1-1.6,1.1-2.7s-0.4-1.9-1.1-2.7
		c-0.8-0.8-1.7-1.2-2.7-1.2s-1.9,0.4-2.7,1.1C136.7,66.4,136.3,67.3,136.3,68.3z"/>
	<path d="M147.5,71.4c-0.8-0.9-1.3-1.9-1.3-3.1c0-1.2,0.4-2.2,1.3-3c0.9-0.9,1.9-1.3,3.1-1.3c1.2,0,2.2,0.4,3.1,1.3
		c0.9,0.9,1.3,1.9,1.3,3s-0.4,2.2-1.3,3.1c-0.8,0.9-1.8,1.3-3,1.3h-0.2C149.4,72.7,148.3,72.2,147.5,71.4z M154.4,68.3
		c0-1-0.4-1.9-1.1-2.7c-0.7-0.8-1.6-1.1-2.7-1.1s-1.9,0.4-2.7,1.2c-0.8,0.8-1.1,1.7-1.1,2.7s0.4,1.9,1.1,2.7
		c0.8,0.8,1.7,1.1,2.7,1.1c1,0,1.9-0.4,2.7-1.1S154.4,69.4,154.4,68.3z"/>
	<path d="M159.8,64.5c-0.7,0-1.2,0.2-1.7,0.7s-0.7,1.1-0.7,1.7v5.5h-0.6v-8.3h0.6v1.2c0.2-0.4,0.6-0.8,1-1c0.5-0.3,1-0.4,1.6-0.4
		c0.6,0,1.1,0.2,1.7,0.6v0.7C161.1,64.8,160.5,64.5,159.8,64.5z"/>
	<path d="M169,64.2h0.6l3.4,7.2l1.6-3.4l-1.8-3.8h0.6l1.5,3.3l1.5-3.3h0.6l-1.8,3.9l1.6,3.4l3.4-7.3h0.5l-3.9,8.5l-1.9-4l-1.9,4
		L169,64.2z"/>
	<path d="M186.4,72.7h-0.2c-1.2,0-2.2-0.4-3.1-1.3s-1.3-1.9-1.3-3.1c0-1.2,0.4-2.2,1.3-3c0.9-0.9,1.9-1.3,3.2-1.3s2.4,0.5,3.3,1.5
		l-5.8,5.7c0.8,0.6,1.6,1,2.3,1s1.4-0.2,2-0.5c0.6-0.3,1.1-0.8,1.4-1.4v0.9C188.7,72.2,187.6,72.7,186.4,72.7z M186.2,64.5
		c-1,0-1.8,0.4-2.6,1.1c-0.8,0.8-1.1,1.6-1.1,2.6c0,1,0.3,1.8,1,2.6l5.4-5.3C188,64.8,187.2,64.5,186.2,64.5z"/>
	<path d="M191.3,72.5V58.7h0.6v7.6c0.3-0.7,0.9-1.2,1.6-1.6c0.7-0.4,1.4-0.6,2.2-0.6c1.2,0,2.3,0.4,3.1,1.3c0.9,0.9,1.3,1.9,1.3,3.1
		c0,1.2-0.4,2.2-1.3,3.1c-0.9,0.9-1.9,1.3-3.1,1.3c-0.7,0-1.5-0.2-2.2-0.6c-0.7-0.4-1.2-0.9-1.6-1.6v2H191.3z M191.9,68.3
		c0,1,0.4,1.9,1.1,2.7s1.7,1.1,2.7,1.1c1,0,1.9-0.4,2.7-1.1s1.1-1.7,1.1-2.7c0-1-0.4-1.9-1.1-2.7c-0.7-0.8-1.6-1.1-2.7-1.1
		s-1.9,0.4-2.7,1.2C192.3,66.4,191.9,67.3,191.9,68.3z"/>
</g>
</svg>
